<svg width="14" height="14" fill="none" xmlns="http://www.w3.org/2000/svg"><path d="M7 0C5.13 0 3.372.728 2.05 2.05A6.953 6.953 0 000 7c0 1.87.728 3.627 2.05 4.95A6.953 6.953 0 007 14c1.87 0 3.627-.728 4.95-2.05A6.953 6.953 0 0014 7c0-1.87-.728-3.628-2.05-4.95A6.954 6.954 0 007 0zm4.33 11.33A6.084 6.084 0 017 13.126a6.084 6.084 0 01-4.33-1.794A6.084 6.084 0 01.874 7c0-1.636.637-3.174 1.794-4.33A6.084 6.084 0 017 .874c1.636 0 3.174.637 4.331 1.794A6.084 6.084 0 0113.125 7a6.083 6.083 0 01-1.794 4.33z" fill="#828282"/><path d="M10.235 7.91L7.438 6.712V2.188a.438.438 0 00-.875 0V7c0 .175.104.333.265.402L9.89 8.715a.436.436 0 10.345-.805z" fill="#828282"/></svg>