<svg width="16" height="16" fill="none" xmlns="http://www.w3.org/2000/svg"><path d="M11.354 9.146a.5.5 0 00-.707 0l-.397.397-.953-.953A5.227 5.227 0 0010.5 5.25 5.256 5.256 0 005.25 0 5.256 5.256 0 000 5.25a5.256 5.256 0 005.25 5.25 5.227 5.227 0 003.34-1.203l.953.953-.396.396a.5.5 0 000 .707l4.5 4.5a.498.498 0 00.707 0l1.5-1.5a.5.5 0 000-.707l-4.5-4.5zM1 5.25A4.255 4.255 0 015.25 1 4.255 4.255 0 019.5 5.25 4.255 4.255 0 015.25 9.5 4.255 4.255 0 011 5.25zm13 9.543L10.207 11l.793-.793L14.793 14l-.793.793z" fill="#fff"/></svg>